G04*
G04 #@! TF.GenerationSoftware,Altium Limited,Altium Designer,18.1.9 (240)*
G04*
G04 Layer_Color=65535*
%FSLAX25Y25*%
%MOIN*%
G70*
G01*
G75*
%ADD10C,0.00787*%
%ADD11C,0.01000*%
%ADD12R,0.06299X0.01575*%
D10*
X20472Y20079D02*
X26772D01*
X20472D02*
Y33858D01*
X26772D01*
Y20079D02*
Y33858D01*
X45587Y37244D02*
X51587D01*
Y47244D01*
X45587D02*
X51587D01*
X68587Y32244D02*
Y52244D01*
X45587Y32244D02*
X68587D01*
X45587D02*
Y52244D01*
X68587D01*
X19685Y59842D02*
X27559D01*
Y46457D02*
Y59842D01*
X19685Y46457D02*
X27559D01*
X19685D02*
Y59842D01*
X7086Y10628D02*
X3937D01*
Y8267D01*
X5511D01*
X3937D01*
Y5906D01*
X11808Y10628D02*
X8660D01*
Y5906D01*
X11808D01*
X8660Y8267D02*
X10234D01*
X13383Y10628D02*
Y5906D01*
X15744D01*
X16531Y6693D01*
Y9841D01*
X15744Y10628D01*
X13383D01*
X21254D02*
X18106D01*
Y5906D01*
X21254D01*
X18106Y8267D02*
X19680D01*
X22828Y10628D02*
Y7480D01*
X24403Y5906D01*
X25977Y7480D01*
Y10628D01*
X30700D02*
X27551D01*
Y5906D01*
X30700D01*
X27551Y8267D02*
X29126D01*
X32274Y10628D02*
Y5906D01*
X35423D01*
X41720D02*
Y9054D01*
X43294Y10628D01*
X44869Y9054D01*
Y5906D01*
Y8267D01*
X41720D01*
X49591Y9054D02*
X47230D01*
X46443Y8267D01*
Y6693D01*
X47230Y5906D01*
X49591D01*
X51953Y9054D02*
X53527D01*
X54314Y8267D01*
Y5906D01*
X51953D01*
X51166Y6693D01*
X51953Y7480D01*
X54314D01*
X59037Y10628D02*
Y5906D01*
X56676D01*
X55889Y6693D01*
Y8267D01*
X56676Y9054D01*
X59037D01*
X62973Y5906D02*
X61399D01*
X60612Y6693D01*
Y8267D01*
X61399Y9054D01*
X62973D01*
X63760Y8267D01*
Y7480D01*
X60612D01*
X65334Y5906D02*
Y9054D01*
X66122D01*
X66909Y8267D01*
Y5906D01*
Y8267D01*
X67696Y9054D01*
X68483Y8267D01*
Y5906D01*
X70057Y9054D02*
Y6693D01*
X70845Y5906D01*
X73206D01*
Y5118D01*
X72419Y4331D01*
X71632D01*
X73206Y5906D02*
Y9054D01*
X39370Y36220D02*
X42519D01*
X39370Y47637D02*
X42519D01*
X40944Y49211D02*
Y46063D01*
D11*
X71587Y46244D02*
X73586D01*
X72586D01*
Y52242D01*
X71587Y51243D01*
X7874Y51181D02*
Y57179D01*
X10873D01*
X11873Y56179D01*
Y54180D01*
X10873Y53180D01*
X7874D01*
X9873D02*
X11873Y51181D01*
X13872D02*
X15871D01*
X14872D01*
Y57179D01*
X13872Y56179D01*
X50235Y62192D02*
X48236D01*
X49236D01*
Y57194D01*
X48236Y56194D01*
X47236D01*
X46237Y57194D01*
X52235Y56194D02*
X54234D01*
X53234D01*
Y62192D01*
X52235Y61193D01*
X7874Y30309D02*
Y24311D01*
X10873D01*
X11873Y25311D01*
Y29309D01*
X10873Y30309D01*
X7874D01*
X13872Y24311D02*
X15871D01*
X14872D01*
Y30309D01*
X13872Y29309D01*
D12*
X23622Y20866D02*
D03*
M02*
